<svg xmlns="http://www.w3.org/2000/svg" width="2031" height="2063" viewBox="0 0 2031 2063" role="img" aria-label="KeepSeek logo">
  <path fill="#577BF7" fill-rule="evenodd" d="M252 978L254 938L259 895L267 857L269 854L270 846L272 844L272 839L279 820L279 816L282 811L283 805L286 801L286 798L288 796L288 793L290 791L290 788L294 782L296 774L303 760L305 759L306 754L308 753L315 738L318 736L326 720L329 718L330 714L332 713L336 705L339 703L343 695L354 683L354 681L358 678L358 676L363 672L363 670L371 663L371 661L404 628L406 628L414 619L416 619L420 614L422 614L424 611L430 608L437 601L439 601L446 595L450 594L451 592L453 592L463 584L467 583L468 581L474 579L475 577L483 574L484 572L487 572L488 570L498 565L504 564L505 562L510 561L514 558L526 555L527 553L563 541L618 530L668 526L706 526L720 528L754 529L786 533L792 535L800 535L805 537L832 541L872 520L887 515L888 513L897 511L916 502L920 502L926 499L930 499L936 496L941 496L959 490L975 488L984 485L1022 482L1043 483L1065 488L1068 491L1072 492L1078 498L1079 512L1070 523L1068 523L1066 526L1064 526L1062 529L1060 529L1050 538L1048 538L1030 559L1028 566L1025 570L1024 577L1024 591L1030 605L1044 619L1046 619L1055 627L1057 627L1058 629L1066 633L1068 636L1079 642L1082 646L1087 648L1089 651L1091 651L1101 660L1103 660L1106 664L1108 664L1111 668L1117 671L1120 675L1127 679L1133 686L1135 686L1142 694L1144 694L1150 701L1152 701L1160 710L1162 710L1178 726L1178 728L1180 728L1180 730L1184 732L1184 734L1186 734L1188 738L1206 755L1206 757L1220 770L1220 772L1222 772L1222 774L1236 787L1236 789L1274 826L1274 828L1279 830L1279 832L1281 832L1296 847L1298 847L1307 856L1309 856L1316 863L1318 863L1320 866L1322 866L1335 876L1356 887L1359 887L1367 891L1381 891L1387 888L1398 876L1409 853L1409 849L1413 838L1414 820L1410 812L1397 800L1391 797L1378 784L1376 784L1369 776L1367 776L1344 753L1344 751L1339 747L1339 745L1336 743L1333 737L1329 734L1329 732L1321 722L1318 714L1316 713L1314 707L1312 706L1310 700L1308 699L1304 691L1304 688L1300 682L1295 667L1291 648L1289 645L1283 598L1283 566L1287 537L1300 493L1312 471L1322 461L1326 459L1335 459L1339 460L1345 466L1351 477L1356 492L1356 496L1363 513L1365 514L1368 522L1373 527L1373 529L1390 547L1392 547L1395 551L1399 552L1405 557L1409 558L1410 560L1422 566L1425 566L1426 568L1430 568L1431 570L1434 570L1454 580L1458 584L1461 584L1464 588L1468 589L1479 599L1481 599L1493 611L1493 613L1498 617L1502 625L1507 630L1516 647L1517 653L1520 658L1523 673L1528 669L1528 667L1534 661L1534 659L1555 640L1567 634L1568 632L1581 626L1584 626L1586 624L1602 619L1622 616L1683 614L1698 611L1706 607L1709 607L1721 601L1729 594L1731 594L1733 591L1735 591L1737 588L1739 588L1739 586L1757 569L1757 567L1762 563L1762 561L1765 560L1765 558L1776 548L1786 547L1794 550L1800 557L1800 560L1804 567L1806 581L1805 616L1794 664L1792 666L1790 675L1782 691L1782 694L1780 695L1780 698L1775 708L1773 709L1770 717L1768 718L1768 721L1766 722L1765 726L1763 727L1759 735L1756 737L1754 742L1748 748L1748 750L1740 758L1740 760L1704 794L1702 794L1700 797L1698 797L1688 805L1684 806L1680 810L1669 815L1668 817L1648 827L1645 827L1641 830L1626 835L1582 846L1566 848L1562 850L1555 930L1546 984L1544 987L1544 992L1537 1016L1537 1021L1532 1034L1528 1052L1524 1064L1522 1066L1518 1083L1516 1085L1515 1091L1513 1093L1512 1099L1510 1101L1504 1119L1500 1125L1500 1128L1491 1145L1491 1148L1468 1194L1466 1195L1465 1199L1463 1200L1462 1204L1457 1210L1456 1215L1454 1216L1453 1220L1445 1230L1444 1234L1442 1235L1434 1249L1431 1251L1427 1259L1424 1261L1424 1263L1417 1271L1415 1276L1412 1278L1412 1280L1409 1282L1409 1284L1406 1286L1406 1288L1401 1292L1401 1294L1388 1308L1388 1310L1383 1314L1383 1316L1374 1325L1374 1327L1359 1342L1359 1344L1338 1364L1340 1367L1372 1375L1384 1379L1386 1381L1390 1381L1392 1383L1401 1385L1403 1387L1412 1389L1424 1395L1427 1395L1453 1408L1454 1410L1458 1411L1462 1415L1469 1418L1473 1423L1478 1425L1478 1427L1483 1431L1484 1435L1486 1436L1488 1442L1489 1451L1487 1458L1477 1471L1475 1471L1474 1473L1472 1473L1464 1479L1452 1483L1424 1489L1405 1491L1339 1490L1314 1487L1278 1480L1231 1465L1225 1471L1223 1471L1221 1474L1215 1477L1213 1480L1209 1481L1208 1483L1197 1489L1195 1492L1191 1493L1183 1500L1179 1501L1178 1503L1174 1504L1168 1509L1165 1509L1164 1511L1160 1512L1154 1517L1138 1524L1137 1526L1131 1529L1128 1529L1127 1531L1124 1531L1123 1533L1120 1533L1110 1539L1104 1540L1090 1547L1081 1549L1079 1551L1043 1563L1039 1563L1033 1566L1025 1567L1007 1573L971 1580L930 1585L898 1587L858 1587L829 1586L771 1580L701 1564L692 1560L688 1560L673 1555L671 1553L665 1552L663 1550L645 1544L641 1541L628 1537L586 1517L585 1515L579 1513L578 1511L568 1507L562 1502L551 1497L543 1490L539 1489L535 1485L525 1480L523 1477L521 1477L519 1474L514 1472L511 1468L503 1464L495 1456L489 1453L486 1449L480 1446L457 1424L455 1424L440 1408L438 1408L424 1394L424 1392L422 1392L417 1387L416 1384L414 1384L414 1382L399 1367L399 1365L390 1356L390 1354L382 1347L382 1345L370 1331L368 1326L362 1320L362 1318L360 1317L352 1303L349 1301L346 1294L344 1293L339 1283L337 1282L336 1278L334 1277L333 1273L331 1272L328 1264L326 1263L323 1255L321 1254L307 1227L307 1224L300 1212L300 1209L294 1198L292 1190L289 1186L288 1180L286 1178L286 1175L281 1164L278 1149L276 1148L276 1144L273 1138L272 1130L269 1124L264 1104L264 1098L261 1090L257 1066L253 1025ZM351 908L352 934L354 939L356 960L360 977L360 985L368 1020L370 1023L370 1028L372 1030L372 1034L376 1044L376 1049L378 1051L382 1067L387 1076L389 1086L392 1090L400 1114L411 1134L411 1137L427 1169L429 1170L442 1196L445 1198L446 1202L448 1203L448 1205L450 1206L450 1208L452 1209L455 1216L458 1218L459 1222L462 1224L466 1232L469 1234L471 1239L482 1251L483 1255L492 1264L492 1266L503 1278L503 1280L529 1306L529 1308L542 1321L544 1321L544 1323L547 1326L549 1326L555 1333L558 1334L559 1337L566 1341L577 1352L579 1352L586 1359L592 1362L595 1366L603 1370L610 1377L613 1377L615 1380L620 1382L625 1387L671 1410L704 1421L738 1426L763 1425L777 1421L786 1414L789 1408L789 1390L787 1388L783 1376L781 1375L779 1369L777 1368L773 1358L766 1349L757 1331L757 1327L755 1326L753 1319L753 1305L757 1296L767 1289L790 1288L807 1292L815 1296L821 1297L825 1300L828 1300L830 1302L833 1302L834 1304L849 1310L857 1316L862 1317L863 1319L875 1325L879 1329L882 1329L884 1332L890 1334L892 1337L898 1340L898 1342L901 1342L903 1345L908 1347L912 1352L917 1354L919 1357L923 1358L934 1368L939 1370L942 1374L944 1374L944 1376L949 1378L960 1388L964 1389L967 1393L978 1399L989 1409L993 1410L1000 1416L1004 1417L1009 1422L1016 1425L1025 1432L1028 1432L1030 1435L1042 1439L1045 1442L1049 1442L1056 1446L1076 1451L1078 1453L1082 1453L1088 1456L1123 1461L1174 1461L1208 1455L1207 1452L1203 1451L1199 1447L1188 1442L1184 1438L1180 1437L1179 1435L1168 1429L1165 1425L1158 1421L1144 1408L1139 1406L1117 1384L1115 1384L1103 1372L1103 1370L1091 1359L1091 1357L1079 1346L1079 1344L1077 1344L1077 1342L1071 1337L1071 1335L1065 1330L1065 1328L1061 1325L1057 1318L1048 1309L1048 1307L1045 1305L1045 1303L1042 1301L1042 1299L1038 1296L1033 1287L1027 1281L1025 1276L1019 1270L1017 1265L1007 1254L999 1240L996 1238L995 1234L993 1234L992 1230L985 1222L979 1211L976 1209L976 1207L969 1199L967 1194L964 1192L964 1190L958 1184L954 1176L951 1174L946 1165L940 1159L934 1148L927 1141L925 1136L915 1126L915 1124L899 1106L896 1100L871 1074L871 1072L848 1050L847 1047L845 1047L835 1037L833 1033L831 1033L826 1027L824 1027L813 1015L811 1015L805 1008L803 1008L799 1003L792 999L785 991L780 989L773 982L766 979L763 975L749 967L747 964L745 964L738 958L726 952L724 949L720 948L719 946L707 940L706 938L674 923L673 921L668 920L667 918L655 914L632 902L613 896L609 893L600 891L596 888L592 888L584 884L580 884L571 880L567 880L565 878L557 877L543 872L538 872L535 870L510 866L502 863L465 858L410 857L384 861L382 863L375 864L362 871L355 879L354 887L352 889ZM528 1217L532 1136L532 1022L538 1004L549 992L560 986L567 984L591 983L609 989L622 1002L626 1009L629 1021L627 1072L628 1098L631 1097L638 1090L640 1090L661 1069L661 1067L672 1056L672 1054L682 1041L695 1016L705 1005L707 1005L712 1000L715 1000L719 997L726 995L747 994L763 998L773 1003L780 1010L785 1021L786 1034L783 1047L776 1061L774 1062L770 1070L767 1072L767 1074L763 1077L763 1079L743 1100L741 1100L737 1105L735 1105L732 1109L730 1109L720 1118L704 1126L704 1129L713 1134L714 1136L716 1136L718 1139L720 1139L724 1144L726 1144L728 1147L734 1150L739 1156L741 1156L746 1162L748 1162L760 1174L762 1174L771 1184L773 1184L783 1194L783 1196L789 1201L789 1203L793 1207L799 1222L799 1231L797 1240L793 1248L789 1251L789 1253L787 1253L787 1255L785 1255L782 1259L771 1265L756 1269L737 1269L722 1265L714 1261L696 1245L696 1243L686 1232L682 1224L676 1218L675 1214L672 1212L670 1207L654 1190L654 1188L640 1174L633 1170L630 1170L628 1173L629 1228L627 1249L621 1262L612 1271L610 1271L606 1275L603 1275L602 1277L582 1281L568 1280L554 1276L547 1272L545 1269L543 1269L542 1266L534 1258L530 1249L528 1239ZM1059 937L1061 947L1066 952L1071 953L1072 955L1095 957L1112 962L1120 968L1122 968L1123 970L1125 970L1135 981L1140 992L1142 993L1142 997L1145 1003L1145 1054L1146 1059L1148 1061L1148 1065L1151 1071L1154 1073L1155 1078L1159 1081L1159 1083L1181 1103L1207 1114L1221 1117L1240 1118L1264 1112L1272 1106L1274 1106L1284 1096L1288 1088L1288 1078L1286 1072L1277 1054L1270 1045L1268 1039L1261 1031L1260 1027L1258 1027L1257 1023L1253 1020L1252 1016L1246 1010L1241 1001L1233 994L1230 988L1225 984L1225 982L1222 981L1222 979L1220 979L1220 977L1212 970L1212 968L1210 968L1210 966L1206 962L1204 962L1189 947L1187 947L1175 936L1173 936L1166 930L1162 929L1160 926L1134 915L1116 911L1096 911L1083 914L1074 919L1073 921L1069 922L1063 928ZM1066 1005L1066 1015L1069 1022L1072 1024L1072 1026L1079 1030L1095 1030L1099 1028L1105 1020L1107 1012L1106 1002L1103 996L1096 990L1090 988L1080 989L1076 991L1073 995L1071 995Z"/>
</svg>
