<svg width="24" height="24" viewBox="0 0 24 24" fill="none" xmlns="http://www.w3.org/2000/svg">
  <path d="M5 5.8C5 4.8 5.8 4 6.8 4H17.2C18.2 4 19 4.8 19 5.8V15.2C19 16.2 18.2 17 17.2 17H10.8L6.6 20.1C6 20.5 5.2 20.1 5.2 19.4V17H6.8V17.8L10.1 15.4H17.2C17.3 15.4 17.4 15.3 17.4 15.2V5.8C17.4 5.7 17.3 5.6 17.2 5.6H6.8C6.7 5.6 6.6 5.7 6.6 5.8V13.2H5V5.8Z" fill="#C5C5C5"/>
  <path d="M10.3 8.2L12 6.9L13.7 8.2L15.8 8.1L15.2 10.1L15.8 12.1L13.7 12L12 13.3L10.3 12L8.2 12.1L8.8 10.1L8.2 8.1L10.3 8.2Z" fill="#C5C5C5"/>
</svg>
