<?xml version="1.0" encoding="UTF-8"?>
<svg xmlns="http://www.w3.org/2000/svg" width="260" height="260" viewBox="0 0 260 260" role="img" aria-labelledby="title description">
  <title id="title">KeepSeek</title>
  <desc id="description">A stylized dark-blue bird and letter K intertwined with a warm-gold spiral.</desc>

  <defs>
    <radialGradient id="blue" cx="25%" cy="38%" r="92%">
      <stop offset="0" stop-color="#274a69"/>
      <stop offset="0.55" stop-color="#244765"/>
      <stop offset="1" stop-color="#214766"/>
    </radialGradient>
    <linearGradient id="gold" x1="1" y1="0" x2="0" y2="1">
      <stop offset="0" stop-color="#c3a274"/>
      <stop offset="0.55" stop-color="#c8a777"/>
      <stop offset="0.72" stop-color="#ccaa78"/>
      <stop offset="1" stop-color="#cfad79"/>
    </linearGradient>
    <filter id="soft-outline" x="-3%" y="-3%" width="106%" height="106%" color-interpolation-filters="sRGB">
      <feMorphology in="SourceAlpha" operator="dilate" radius="0.6" result="spread"/>
      <feComposite in="spread" in2="SourceAlpha" operator="out" result="outer-ring"/>
      <feGaussianBlur in="outer-ring" stdDeviation="0.35" result="soft-ring"/>
      <feFlood flood-color="#d5dcdf" flood-opacity="0.62" result="outline-color"/>
      <feComposite in="outline-color" in2="soft-ring" operator="in" result="outline"/>
      <feMerge>
        <feMergeNode in="outline"/>
        <feMergeNode in="SourceGraphic"/>
      </feMerge>
    </filter>
  </defs>

  <path
    d="M120.9 112.2
       C136.2 107 148.5 105.2 161.3 105.6
       C183.1 105.9 201.4 113.1 214.4 125.2
       C227.4 137.4 232.6 151.5 232.1 168.1
       C231.6 192 221.9 211.5 205.8 223
       C193.1 232 177.2 237.9 159.4 239.7
       C132.9 242.5 101 237.3 75.4 228.9
       C92 231.7 109.8 228.8 124.2 222.8
       C137 217.5 147.3 210.6 155 202.2
       C139 211.3 119.5 217.5 101 219.8
       C79 222.5 59.1 217.7 41.8 205.5
       L127.3 205.5
       C141.1 205.5 152.8 199.2 161.4 189.4
       C169.2 180.6 173.2 170.5 172.3 161.2
       C171.6 153.7 167.9 148.8 162.3 147.6
       C156.1 146.2 150.5 148.1 144.2 154
       C142 142.1 138.2 127 130 119.8
       C127.1 117.2 124.1 114.7 120.9 112.2Z"
    fill="url(#gold)"
    stroke="#f7f8f6"
    stroke-width="1.15"
    stroke-linejoin="round"
    filter="url(#soft-outline)"/>

  <path
    d="M11.2 51
       L34.7 27.3
       C40 22.4 47.5 19.6 55.7 19.6
       H82.6
       V103.9
       L134 42.4
       C144.2 28.8 157.8 20 173.3 19.7
       H248.5
       L121 111.7
       C130.8 120 136.9 132.4 140.8 147.5
       L152.8 190.5
       L82.8 120.4
       V167
       C51.7 150.4 35.2 126.5 35.2 96
       V51
       H11.2Z"
    fill="url(#blue)"
    stroke="#f7f8f7"
    stroke-width="1.15"
    stroke-linejoin="round"
    filter="url(#soft-outline)"/>

  <circle cx="52.8" cy="39.6" r="4.65" fill="#fff"/>
</svg>
