<?xml version="1.0" encoding="UTF-8"?>
<svg width="1554px" height="1554px" viewBox="0 0 1554 1554" version="1.1" xmlns="http://www.w3.org/2000/svg" xmlns:xlink="http://www.w3.org/1999/xlink">
    <title>keepseek</title>
    <g id="页面-1" stroke="none" stroke-width="1" fill="none" fill-rule="evenodd">
        <g id="keepseek">
            <rect id="矩形" x="0" y="0" width="1554" height="1554"></rect>
            <path d="M0,732 L2,692 L7,649 L15,611 L17,608 L18,600 L20,598 L20,593 L27,574 L27,570 L30,565 L31,559 L34,555 L34,552 L36,550 L36,547 L38,545 L38,542 L42,536 L44,528 L51,514 L53,513 L54,508 L56,507 L63,492 L66,490 L74,474 L77,472 L78,468 L80,467 L84,459 L87,457 L91,449 L102,437 L102,435 L106,432 L106,430 L111,426 L111,424 L119,417 L119,415 L152,382 L154,382 L162,373 L164,373 L168,368 L170,368 L172,365 L178,362 L185,355 L187,355 L194,349 L198,348 L199,346 L201,346 L211,338 L215,337 L216,335 L222,333 L223,331 L231,328 L232,326 L235,326 L236,324 L246,319 L252,318 L253,316 L258,315 L262,312 L274,309 L275,307 L311,295 L366,284 L416,280 L454,280 L468,282 L502,283 L534,287 L540,289 L548,289 L553,291 L580,295 L620,274 L635,269 L636,267 L645,265 L664,256 L668,256 L674,253 L678,253 L684,250 L689,250 L707,244 L723,242 L732,239 L770,236 L791,237 L813,242 L816,245 L820,246 L826,252 L827,266 L818,277 L816,277 L814,280 L812,280 L810,283 L808,283 L798,292 L796,292 L778,313 L776,320 L773,324 L772,331 L772,345 L778,359 L792,373 L794,373 L803,381 L805,381 L806,383 L814,387 L816,390 L827,396 L830,400 L835,402 L837,405 L839,405 L849,414 L851,414 L854,418 L856,418 L859,422 L865,425 L868,429 L875,433 L881,440 L883,440 L890,448 L892,448 L898,455 L900,455 L908,464 L910,464 L926,480 L926,482 L928,482 L928,484 L932,486 L932,488 L934,488 L936,492 L954,509 L954,511 L968,524 L968,526 L970,526 L970,528 L984,541 L984,543 L1022,580 L1022,582 L1027,584 L1027,586 L1029,586 L1044,601 L1046,601 L1055,610 L1057,610 L1064,617 L1066,617 L1068,620 L1070,620 L1083,630 L1104,641 L1107,641 L1115,645 L1129,645 L1135,642 L1146,630 L1157,607 L1157,603 L1161,592 L1162,574 L1158,566 L1145,554 L1139,551 L1126,538 L1124,538 L1117,530 L1115,530 L1092,507 L1092,505 L1087,501 L1087,499 L1084,497 L1081,491 L1077,488 L1077,486 L1069,476 L1066,468 L1064,467 L1062,461 L1060,460 L1058,454 L1056,453 L1052,445 L1052,442 L1048,436 L1043,421 L1039,402 L1037,399 L1031,352 L1031,320 L1035,291 L1048,247 L1060,225 L1070,215 L1074,213 L1083,213 L1087,214 L1093,220 L1099,231 L1104,246 L1104,250 L1111,267 L1113,268 L1116,276 L1121,281 L1121,283 L1138,301 L1140,301 L1143,305 L1147,306 L1153,311 L1157,312 L1158,314 L1170,320 L1173,320 L1174,322 L1178,322 L1179,324 L1182,324 L1202,334 L1206,338 L1209,338 L1212,342 L1216,343 L1227,353 L1229,353 L1241,365 L1241,367 L1246,371 L1250,379 L1255,384 L1264,401 L1265,407 L1268,412 L1271,427 L1276,423 L1276,421 L1282,415 L1282,413 L1303,394 L1315,388 L1316,386 L1329,380 L1332,380 L1334,378 L1350,373 L1370,370 L1431,368 L1446,365 L1454,361 L1457,361 L1469,355 L1477,348 L1479,348 L1481,345 L1483,345 L1485,342 L1487,342 L1487,340 L1505,323 L1505,321 L1510,317 L1510,315 L1513,314 L1513,312 L1524,302 L1534,301 L1542,304 L1548,311 L1548,314 L1552,321 L1554,335 L1553,370 L1542,418 L1540,420 L1538,429 L1530,445 L1530,448 L1528,449 L1528,452 L1523,462 L1521,463 L1518,471 L1516,472 L1516,475 L1514,476 L1513,480 L1511,481 L1507,489 L1504,491 L1502,496 L1496,502 L1496,504 L1488,512 L1488,514 L1452,548 L1450,548 L1448,551 L1446,551 L1436,559 L1432,560 L1428,564 L1417,569 L1416,571 L1396,581 L1393,581 L1389,584 L1374,589 L1330,600 L1314,602 L1310,604 L1303,684 L1294,738 L1292,741 L1292,746 L1285,770 L1285,775 L1280,788 L1276,806 L1272,818 L1270,820 L1266,837 L1264,839 L1263,845 L1261,847 L1260,853 L1258,855 L1252,873 L1248,879 L1248,882 L1239,899 L1239,902 L1216,948 L1214,949 L1213,953 L1211,954 L1210,958 L1205,964 L1204,969 L1202,970 L1201,974 L1193,984 L1192,988 L1190,989 L1182,1003 L1179,1005 L1175,1013 L1172,1015 L1172,1017 L1165,1025 L1163,1030 L1160,1032 L1160,1034 L1157,1036 L1157,1038 L1154,1040 L1154,1042 L1149,1046 L1149,1048 L1136,1062 L1136,1064 L1131,1068 L1131,1070 L1122,1079 L1122,1081 L1107,1096 L1107,1098 L1086,1118 L1088,1121 L1120,1129 L1132,1133 L1134,1135 L1138,1135 L1140,1137 L1149,1139 L1151,1141 L1160,1143 L1172,1149 L1175,1149 L1201,1162 L1202,1164 L1206,1165 L1210,1169 L1217,1172 L1221,1177 L1226,1179 L1226,1181 L1231,1185 L1232,1189 L1234,1190 L1236,1196 L1237,1205 L1235,1212 L1225,1225 L1223,1225 L1222,1227 L1220,1227 L1212,1233 L1200,1237 L1172,1243 L1153,1245 L1087,1244 L1062,1241 L1026,1234 L979,1219 L973,1225 L971,1225 L969,1228 L963,1231 L961,1234 L957,1235 L956,1237 L945,1243 L943,1246 L939,1247 L931,1254 L927,1255 L926,1257 L922,1258 L916,1263 L913,1263 L912,1265 L908,1266 L902,1271 L886,1278 L885,1280 L879,1283 L876,1283 L875,1285 L872,1285 L871,1287 L868,1287 L858,1293 L852,1294 L838,1301 L829,1303 L827,1305 L791,1317 L787,1317 L781,1320 L773,1321 L755,1327 L719,1334 L678,1339 L646,1341 L606,1341 L577,1340 L519,1334 L449,1318 L440,1314 L436,1314 L421,1309 L419,1307 L413,1306 L411,1304 L393,1298 L389,1295 L376,1291 L334,1271 L333,1269 L327,1267 L326,1265 L316,1261 L310,1256 L299,1251 L291,1244 L287,1243 L283,1239 L273,1234 L271,1231 L269,1231 L267,1228 L262,1226 L259,1222 L251,1218 L243,1210 L237,1207 L234,1203 L228,1200 L205,1178 L203,1178 L188,1162 L186,1162 L172,1148 L172,1146 L170,1146 L165,1141 L164,1138 L162,1138 L162,1136 L147,1121 L147,1119 L138,1110 L138,1108 L130,1101 L130,1099 L118,1085 L116,1080 L110,1074 L110,1072 L108,1071 L100,1057 L97,1055 L94,1048 L92,1047 L87,1037 L85,1036 L84,1032 L82,1031 L81,1027 L79,1026 L76,1018 L74,1017 L71,1009 L69,1008 L55,981 L55,978 L48,966 L48,963 L42,952 L40,944 L37,940 L36,934 L34,932 L34,929 L29,918 L26,903 L24,902 L24,898 L21,892 L20,884 L17,878 L12,858 L12,852 L9,844 L5,820 L1,779 L0,732 Z M99,662 L100,688 L102,693 L104,714 L108,731 L108,739 L116,774 L118,777 L118,782 L120,784 L120,788 L124,798 L124,803 L126,805 L130,821 L135,830 L137,840 L140,844 L148,868 L159,888 L159,891 L175,923 L177,924 L190,950 L193,952 L194,956 L196,957 L196,959 L198,960 L198,962 L200,963 L203,970 L206,972 L207,976 L210,978 L214,986 L217,988 L219,993 L230,1005 L231,1009 L240,1018 L240,1020 L251,1032 L251,1034 L277,1060 L277,1062 L290,1075 L292,1075 L292,1077 L295,1080 L297,1080 L303,1087 L306,1088 L307,1091 L314,1095 L325,1106 L327,1106 L334,1113 L340,1116 L343,1120 L351,1124 L358,1131 L361,1131 L363,1134 L368,1136 L373,1141 L419,1164 L452,1175 L486,1180 L511,1179 L525,1175 L534,1168 L537,1162 L537,1144 L535,1142 L531,1130 L529,1129 L527,1123 L525,1122 L521,1112 L514,1103 L505,1085 L505,1081 L503,1080 L501,1073 L501,1059 L505,1050 L515,1043 L538,1042 L555,1046 L563,1050 L569,1051 L573,1054 L576,1054 L578,1056 L581,1056 L582,1058 L597,1064 L605,1070 L610,1071 L611,1073 L623,1079 L627,1083 L630,1083 L632,1086 L638,1088 L640,1091 L646,1094 L646,1096 L649,1096 L651,1099 L656,1101 L660,1106 L665,1108 L667,1111 L671,1112 L682,1122 L687,1124 L690,1128 L692,1128 L692,1130 L697,1132 L708,1142 L712,1143 L715,1147 L726,1153 L737,1163 L741,1164 L748,1170 L752,1171 L757,1176 L764,1179 L773,1186 L776,1186 L778,1189 L790,1193 L793,1196 L797,1196 L804,1200 L824,1205 L826,1207 L830,1207 L836,1210 L871,1215 L922,1215 L956,1209 L955,1206 L951,1205 L947,1201 L936,1196 L932,1192 L928,1191 L927,1189 L916,1183 L913,1179 L906,1175 L892,1162 L887,1160 L865,1138 L863,1138 L851,1126 L851,1124 L839,1113 L839,1111 L827,1100 L827,1098 L825,1098 L825,1096 L819,1091 L819,1089 L813,1084 L813,1082 L809,1079 L805,1072 L796,1063 L796,1061 L793,1059 L793,1057 L790,1055 L790,1053 L786,1050 L781,1041 L775,1035 L773,1030 L767,1024 L765,1019 L755,1008 L747,994 L744,992 L743,988 L741,988 L740,984 L733,976 L727,965 L724,963 L724,961 L717,953 L715,948 L712,946 L712,944 L706,938 L702,930 L699,928 L694,919 L688,913 L682,902 L675,895 L673,890 L663,880 L663,878 L647,860 L644,854 L619,828 L619,826 L596,804 L595,801 L593,801 L583,791 L581,787 L579,787 L574,781 L572,781 L561,769 L559,769 L553,762 L551,762 L547,757 L540,753 L533,745 L528,743 L521,736 L514,733 L511,729 L497,721 L495,718 L493,718 L486,712 L474,706 L472,703 L468,702 L467,700 L455,694 L454,692 L422,677 L421,675 L416,674 L415,672 L403,668 L380,656 L361,650 L357,647 L348,645 L344,642 L340,642 L332,638 L328,638 L319,634 L315,634 L313,632 L305,631 L291,626 L286,626 L283,624 L258,620 L250,617 L213,612 L158,611 L132,615 L130,617 L123,618 L110,625 L103,633 L102,641 L100,643 L99,662 Z M276,971 L280,890 L280,776 L286,758 L297,746 L308,740 L315,738 L339,737 L357,743 L370,756 L374,763 L377,775 L375,826 L376,852 L379,851 L386,844 L388,844 L409,823 L409,821 L420,810 L420,808 L430,795 L443,770 L453,759 L455,759 L460,754 L463,754 L467,751 L474,749 L495,748 L511,752 L521,757 L528,764 L533,775 L534,788 L531,801 L524,815 L522,816 L518,824 L515,826 L515,828 L511,831 L511,833 L491,854 L489,854 L485,859 L483,859 L480,863 L478,863 L468,872 L452,880 L452,883 L461,888 L462,890 L464,890 L466,893 L468,893 L472,898 L474,898 L476,901 L482,904 L487,910 L489,910 L494,916 L496,916 L508,928 L510,928 L519,938 L521,938 L531,948 L531,950 L537,955 L537,957 L541,961 L547,976 L547,985 L545,994 L541,1002 L537,1005 L537,1007 L535,1007 L535,1009 L533,1009 L530,1013 L519,1019 L504,1023 L485,1023 L470,1019 L462,1015 L444,999 L444,997 L434,986 L430,978 L424,972 L423,968 L420,966 L418,961 L402,944 L402,942 L388,928 L381,924 L378,924 L376,927 L377,982 L375,1003 L369,1016 L360,1025 L358,1025 L354,1029 L351,1029 L350,1031 L330,1035 L316,1034 L302,1030 L295,1026 L293,1023 L291,1023 L290,1020 L282,1012 L278,1003 L276,993 L276,971 Z M807,691 L809,701 L814,706 L819,707 L820,709 L843,711 L860,716 L868,722 L870,722 L871,724 L873,724 L883,735 L888,746 L890,747 L890,751 L893,757 L893,808 L894,813 L896,815 L896,819 L899,825 L902,827 L903,832 L907,835 L907,837 L929,857 L955,868 L969,871 L988,872 L1012,866 L1020,860 L1022,860 L1032,850 L1036,842 L1036,832 L1034,826 L1025,808 L1018,799 L1016,793 L1009,785 L1008,781 L1006,781 L1005,777 L1001,774 L1000,770 L994,764 L989,755 L981,748 L978,742 L973,738 L973,736 L970,735 L970,733 L968,733 L968,731 L960,724 L960,722 L958,722 L958,720 L954,716 L952,716 L937,701 L935,701 L923,690 L921,690 L914,684 L910,683 L908,680 L882,669 L864,665 L844,665 L831,668 L822,673 L821,675 L817,676 L811,682 L807,691 Z M814,759 L814,769 L817,776 L820,778 L820,780 L827,784 L843,784 L847,782 L853,774 L855,766 L854,756 L851,750 L844,744 L838,742 L828,743 L824,745 L821,749 L819,749 L814,759 Z" id="形状" fill="#577BF7"></path>
        </g>
    </g>
</svg>